HIERARCHY
ROOT Hips
{
	OFFSET 0.000000 0.000000 0.000000
	CHANNELS 6 Xposition Yposition Zposition Zrotation Yrotation Xrotation 
	JOINT LHipJoint
	{
		OFFSET 0.000000 0.000000 0.000000
		CHANNELS 3 Zrotation Yrotation Xrotation
		JOINT LeftUpLeg
		{
			OFFSET 1.363060 -1.794630 0.839290
			CHANNELS 3 Zrotation Yrotation Xrotation
			JOINT LeftLeg
			{
				OFFSET 2.448110 -6.726130 0.000000
				CHANNELS 3 Zrotation Yrotation Xrotation
				JOINT LeftFoot
				{
					OFFSET 2.562200 -7.039590 0.000000
					CHANNELS 3 Zrotation Yrotation Xrotation
					JOINT LeftToeBase
					{
						OFFSET 0.157640 -0.433110 2.322550
						CHANNELS 3 Zrotation Yrotation Xrotation
						End Site
						{
							OFFSET 0.000000 0.000000 0.000000
						}
					}
				}
			}
		}
	}
	JOINT RHipJoint
	{
		OFFSET 0.000000 0.000000 0.000000
		CHANNELS 3 Zrotation Yrotation Xrotation
		JOINT RightUpLeg
		{
			OFFSET -1.305520 -1.794630 0.839290
			CHANNELS 3 Zrotation Yrotation Xrotation
			JOINT RightLeg
			{
				OFFSET -2.542530 -6.985550 0.000000
				CHANNELS 3 Zrotation Yrotation Xrotation
				JOINT RightFoot
				{
					OFFSET -2.568260 -7.056230 0.000000
					CHANNELS 3 Zrotation Yrotation Xrotation
					JOINT RightToeBase
					{
						OFFSET -0.164730 -0.452590 2.363150
						CHANNELS 3 Zrotation Yrotation Xrotation
						End Site
						{
							OFFSET 0.000000 0.000000 0.000000
						}
					}
				}
			}
		}
	}
}
MOTION
Frames: 11
Frame Time: 0.008333
4.107008 17.607298 -0.138325 -8.370386 82.202779 14.032010 -10.479138 1.013216 0.684670 -7.759447 1.947090 -19.704778 -2.033198 -0.726612 9.124791 0.998361 6.169348 -3.131427 0.611001 0.000000 -40.153300 9.717816 -0.026182 -1.094685 10.488500 -2.779257 -43.349896 0.292279 -3.716755 51.481579 -1.723593 -7.961445 -1.291822 -1.309400 0.000001 -49.205800
4.376600 17.611263 -0.115734 -9.155966 82.695123 13.106124 -10.577609 1.131195 0.531926 -7.584804 2.528366 -18.203737 -2.059751 -0.723046 8.326246 0.877448 5.512048 -2.673557 0.589800 -0.000000 -41.045900 9.532170 0.050255 -0.914641 10.750309 -2.421846 -44.169275 0.578795 -3.560586 48.582444 -1.616593 -7.281810 -1.413420 -1.253000 -0.000000 -50.392500
4.646277 17.603635 -0.087644 -8.986120 83.272481 13.150810 -10.655313 1.245057 0.383652 -7.492507 2.985950 -16.766924 -2.093128 -0.715714 7.677504 0.769039 4.883991 -2.311481 0.556000 0.000000 -41.901400 9.365313 0.132082 -0.709884 10.775490 -2.100362 -44.896468 0.874428 -3.373917 45.409074 -1.510841 -6.637291 -1.385634 -1.222300 0.000000 -51.175200
4.915782 17.584716 -0.054038 -7.574887 83.932133 14.451163 -10.715492 1.348786 0.235578 -7.477848 3.316214 -15.365001 -2.132902 -0.708352 7.146440 0.671602 4.285487 -2.048690 0.512700 0.000000 -42.792900 9.217387 0.220860 -0.481082 10.556930 -1.816270 -45.540603 1.170312 -3.152369 41.990212 -1.411989 -6.064568 -1.209371 -1.218700 -0.000000 -51.413200
5.184945 17.554808 -0.015201 -4.504166 84.670097 17.427229 -10.759132 1.434282 0.082100 -7.530034 3.527635 -13.977908 -2.179092 -0.704817 6.709829 0.581889 3.704382 -1.883235 0.461900 0.000000 -43.798400 9.090377 0.313440 -0.226196 10.098347 -1.572105 -46.117805 1.457525 -2.893516 38.358274 -1.324729 -5.589208 -0.895429 -1.242100 0.000000 -51.136400
5.453583 17.514327 0.028267 0.847526 85.480658 22.699924 -10.777289 1.492500 -0.085724 -7.629743 3.639677 -12.586789 -2.232117 -0.708960 6.349654 0.495821 3.120640 -1.805721 0.405800 0.000000 -44.984199 8.993546 0.404457 0.057662 9.415197 -1.373498 -46.641023 1.727269 -2.597001 34.543577 -1.251990 -5.220153 -0.468127 -1.288999 0.000000 -50.465800
5.721749 17.463751 0.075452 9.309642 86.348360 31.101300 -10.737935 1.522672 -0.275408 -7.741048 3.678836 -11.188225 -2.292901 -0.722243 6.058990 0.410307 2.511741 -1.806890 0.345300 -0.000001 -46.390800 8.954030 0.496944 0.376135 8.544590 -1.224281 -47.119576 1.968756 -2.262058 30.570790 -1.194062 -4.948914 0.040554 -1.353200 0.000000 -49.601799
5.989299 17.403626 0.125394 21.750151 87.192631 43.490277 -10.585519 1.552769 -0.494557 -7.822907 3.688208 -9.767924 -2.362669 -0.736152 5.813606 0.327078 1.873310 -1.874790 0.282899 0.000000 -48.016600 9.021104 0.631656 0.723462 7.540376 -1.113848 -47.530765 2.164880 -1.882809 26.471204 -1.143869 -4.738854 0.593853 -1.422400 -0.000000 -48.727299
6.256608 17.334556 0.177048 38.027978 87.827450 59.721318 -10.323021 1.640827 -0.727542 -7.853177 3.718802 -8.349244 -2.439534 -0.728160 5.592692 0.252440 1.218614 -2.008050 0.219699 -0.000000 -49.825500 9.204930 0.876139 1.078713 6.468353 -1.013930 -47.854366 2.305142 -1.446428 22.292099 -1.082491 -4.522718 1.166698 -1.481600 0.000000 -48.025600
6.523782 17.257147 0.229584 55.748066 88.076274 77.376523 -10.068530 1.799688 -0.959125 -7.871427 3.802808 -6.911898 -2.517484 -0.687465 5.365218 0.188487 0.569863 -2.182711 0.159099 -0.000000 -51.745400 9.420672 1.232882 1.401367 5.343343 -0.945600 -48.073212 2.404385 -0.957634 18.100181 -0.987185 -4.210674 1.729917 -1.508800 0.000000 -47.619400
6.791424 17.171978 0.282339 71.478335 87.958078 93.001610 -9.915660 1.980343 -1.187265 -7.907522 3.931840 -5.425686 -2.591544 -0.628548 5.141974 0.129283 -0.076125 -2.369858 0.103501 0.000000 -53.688600 9.586082 1.625638 1.669663 4.175093 -0.993510 -48.197345 2.488470 -0.445767 13.958331 -0.847705 -3.731869 2.248971 -1.479700 0.000000 -47.578900
